<svg width="220" height="40" viewBox="0 0 220 40" fill="none" xmlns="http://www.w3.org/2000/svg">
<path d="M18.8587 3.51246C19.218 2.40689 20.782 2.40689 21.1413 3.51246L24.2209 12.9905C24.3815 13.4849 24.8423 13.8197 25.3621 13.8197H35.3279C36.4904 13.8197 36.9737 15.3072 36.0333 15.9905L27.9708 21.8482C27.5502 22.1538 27.3742 22.6954 27.5348 23.1899L30.6144 32.6679C30.9737 33.7735 29.7083 34.6928 28.7678 34.0095L20.7053 28.1518C20.2848 27.8462 19.7152 27.8462 19.2947 28.1518L11.2322 34.0095C10.2917 34.6928 9.02634 33.7735 9.38556 32.6679L12.4652 23.1899C12.6258 22.6954 12.4498 22.1538 12.0292 21.8482L3.96675 15.9905C3.02629 15.3072 3.50962 13.8197 4.67209 13.8197H14.6379C15.1577 13.8197 15.6185 13.4849 15.7791 12.9905L18.8587 3.51246Z" fill="#F5E400"/>
<path d="M19.3343 3.66697C19.5438 3.02205 20.4562 3.02205 20.6657 3.66697L23.7453 13.145C23.9729 13.8454 24.6256 14.3197 25.3621 14.3197H35.3279C36.006 14.3197 36.288 15.1874 35.7394 15.586L27.6769 21.4437C27.081 21.8766 26.8317 22.6439 27.0593 23.3444L30.1389 32.8224C30.3485 33.4673 29.6103 34.0036 29.0617 33.605L20.9992 27.7473C20.4034 27.3144 19.5966 27.3144 19.0008 27.7473L10.9383 33.605C10.3897 34.0036 9.65155 33.4673 9.86109 32.8224L12.9407 23.3444C13.1683 22.6439 12.919 21.8766 12.3231 21.4437L4.26064 15.586C3.71204 15.1874 3.99398 14.3197 4.67209 14.3197H14.6379C15.3744 14.3197 16.0271 13.8454 16.2547 13.145L19.3343 3.66697Z" stroke="black" stroke-opacity="0.5"/>
<path d="M63.8587 3.51246C64.218 2.40689 65.782 2.40689 66.1413 3.51246L69.2209 12.9905C69.3815 13.4849 69.8423 13.8197 70.3621 13.8197H80.3279C81.4904 13.8197 81.9737 15.3072 81.0333 15.9905L72.9708 21.8482C72.5502 22.1538 72.3742 22.6954 72.5348 23.1899L75.6144 32.6679C75.9737 33.7735 74.7083 34.6928 73.7678 34.0095L65.7053 28.1518C65.2848 27.8462 64.7152 27.8462 64.2947 28.1518L56.2322 34.0095C55.2917 34.6928 54.0263 33.7735 54.3856 32.6679L57.4652 23.1899C57.6258 22.6954 57.4498 22.1538 57.0292 21.8482L48.9667 15.9905C48.0263 15.3072 48.5096 13.8197 49.6721 13.8197H59.6379C60.1577 13.8197 60.6185 13.4849 60.7791 12.9905L63.8587 3.51246Z" fill="#F5E400"/>
<path d="M64.3343 3.66697C64.5438 3.02205 65.4562 3.02205 65.6657 3.66697L68.7453 13.145C68.9729 13.8454 69.6256 14.3197 70.3621 14.3197H80.3279C81.006 14.3197 81.288 15.1874 80.7394 15.586L72.6769 21.4437C72.081 21.8766 71.8317 22.6439 72.0593 23.3444L75.1389 32.8224C75.3485 33.4673 74.6103 34.0036 74.0617 33.605L65.9992 27.7473C65.4034 27.3144 64.5966 27.3144 64.0008 27.7473L55.9383 33.605C55.3897 34.0036 54.6515 33.4673 54.8611 32.8224L57.9407 23.3444C58.1683 22.6439 57.919 21.8766 57.3231 21.4437L49.2606 15.586C48.712 15.1874 48.994 14.3197 49.6721 14.3197H59.6379C60.3744 14.3197 61.0271 13.8454 61.2547 13.145L64.3343 3.66697Z" stroke="black" stroke-opacity="0.5"/>
<path d="M108.859 3.51246C109.218 2.40689 110.782 2.40689 111.141 3.51246L114.221 12.9905C114.382 13.4849 114.842 13.8197 115.362 13.8197H125.328C126.49 13.8197 126.974 15.3072 126.033 15.9905L117.971 21.8482C117.55 22.1538 117.374 22.6954 117.535 23.1899L120.614 32.6679C120.974 33.7735 119.708 34.6928 118.768 34.0095L110.705 28.1518C110.285 27.8462 109.715 27.8462 109.295 28.1518L101.232 34.0095C100.292 34.6928 99.0263 33.7735 99.3856 32.6679L102.465 23.1899C102.626 22.6954 102.45 22.1538 102.029 21.8482L93.9667 15.9905C93.0263 15.3072 93.5096 13.8197 94.6721 13.8197H104.638C105.158 13.8197 105.618 13.4849 105.779 12.9905L108.859 3.51246Z" fill="#F5E400"/>
<path d="M109.334 3.66697C109.544 3.02205 110.456 3.02205 110.666 3.66697L113.745 13.145C113.973 13.8454 114.626 14.3197 115.362 14.3197H125.328C126.006 14.3197 126.288 15.1874 125.739 15.586L117.677 21.4437C117.081 21.8766 116.832 22.6439 117.059 23.3444L120.139 32.8224C120.348 33.4673 119.61 34.0036 119.062 33.605L110.999 27.7473C110.403 27.3144 109.597 27.3144 109.001 27.7473L100.938 33.605C100.39 34.0036 99.6515 33.4673 99.8611 32.8224L102.941 23.3444C103.168 22.6439 102.919 21.8766 102.323 21.4437L94.2606 15.586C93.712 15.1874 93.994 14.3197 94.6721 14.3197H104.638C105.374 14.3197 106.027 13.8454 106.255 13.145L109.334 3.66697Z" stroke="black" stroke-opacity="0.5"/>
<path d="M153.859 3.51246C154.218 2.40689 155.782 2.40689 156.141 3.51246L159.221 12.9905C159.382 13.4849 159.842 13.8197 160.362 13.8197H170.328C171.49 13.8197 171.974 15.3072 171.033 15.9905L162.971 21.8482C162.55 22.1538 162.374 22.6954 162.535 23.1899L165.614 32.6679C165.974 33.7735 164.708 34.6928 163.768 34.0095L155.705 28.1518C155.285 27.8462 154.715 27.8462 154.295 28.1518L146.232 34.0095C145.292 34.6928 144.026 33.7735 144.386 32.6679L147.465 23.1899C147.626 22.6954 147.45 22.1538 147.029 21.8482L138.967 15.9905C138.026 15.3072 138.51 13.8197 139.672 13.8197H149.638C150.158 13.8197 150.618 13.4849 150.779 12.9905L153.859 3.51246Z" fill="#F5E400"/>
<path d="M154.334 3.66697C154.544 3.02205 155.456 3.02205 155.666 3.66697L158.745 13.145C158.973 13.8454 159.626 14.3197 160.362 14.3197H170.328C171.006 14.3197 171.288 15.1874 170.739 15.586L162.677 21.4437C162.081 21.8766 161.832 22.6439 162.059 23.3444L165.139 32.8224C165.348 33.4673 164.61 34.0036 164.062 33.605L155.999 27.7473C155.403 27.3144 154.597 27.3144 154.001 27.7473L145.938 33.605C145.39 34.0036 144.652 33.4673 144.861 32.8224L147.941 23.3444C148.168 22.6439 147.919 21.8766 147.323 21.4437L139.261 15.586C138.712 15.1874 138.994 14.3197 139.672 14.3197H149.638C150.374 14.3197 151.027 13.8454 151.255 13.145L154.334 3.66697Z" stroke="black" stroke-opacity="0.5"/>
<path d="M198.859 3.51246C199.218 2.40689 200.782 2.40689 201.141 3.51246L204.221 12.9905C204.382 13.4849 204.842 13.8197 205.362 13.8197H215.328C216.49 13.8197 216.974 15.3072 216.033 15.9905L207.971 21.8482C207.55 22.1538 207.374 22.6954 207.535 23.1899L210.614 32.6679C210.974 33.7735 209.708 34.6928 208.768 34.0095L200.705 28.1518C200.285 27.8462 199.715 27.8462 199.295 28.1518L191.232 34.0095C190.292 34.6928 189.026 33.7735 189.386 32.6679L192.465 23.1899C192.626 22.6954 192.45 22.1538 192.029 21.8482L183.967 15.9905C183.026 15.3072 183.51 13.8197 184.672 13.8197H194.638C195.158 13.8197 195.618 13.4849 195.779 12.9905L198.859 3.51246Z" fill="#D9D9D9"/>
<path d="M199.334 3.66697C199.544 3.02205 200.456 3.02205 200.666 3.66697L203.745 13.145C203.973 13.8454 204.626 14.3197 205.362 14.3197H215.328C216.006 14.3197 216.288 15.1874 215.739 15.586L207.677 21.4437C207.081 21.8766 206.832 22.6439 207.059 23.3444L210.139 32.8224C210.348 33.4673 209.61 34.0036 209.062 33.605L200.999 27.7473C200.403 27.3144 199.597 27.3144 199.001 27.7473L190.938 33.605C190.39 34.0036 189.652 33.4673 189.861 32.8224L192.941 23.3444C193.168 22.6439 192.919 21.8766 192.323 21.4437L184.261 15.586C183.712 15.1874 183.994 14.3197 184.672 14.3197H194.638C195.374 14.3197 196.027 13.8454 196.255 13.145L199.334 3.66697Z" stroke="black" stroke-opacity="0.5"/>
</svg>
